<svg width="687" height="155" viewBox="0 0 687 155" fill="none" xmlns="http://www.w3.org/2000/svg">
    <path
        d="M218.792 128.667L216.725 112.133C215.606 111.703 214.551 111.186 213.56 110.583C212.57 109.981 211.601 109.335 210.654 108.646L195.283 115.104L181.075 90.5625L194.379 80.4875C194.293 79.8847 194.25 79.3035 194.25 78.7437V75.2562C194.25 74.6965 194.293 74.1153 194.379 73.5125L181.075 63.4375L195.283 38.8958L210.654 45.3542C211.601 44.6653 212.592 44.0194 213.625 43.4167C214.658 42.8139 215.692 42.2972 216.725 41.8667L218.792 25.3333H247.208L249.275 41.8667C250.394 42.2972 251.449 42.8139 252.44 43.4167C253.43 44.0194 254.399 44.6653 255.346 45.3542L270.717 38.8958L284.925 63.4375L271.621 73.5125C271.707 74.1153 271.75 74.6965 271.75 75.2562V78.7437C271.75 79.3035 271.664 79.8847 271.492 80.4875L284.796 90.5625L270.588 115.104L255.346 108.646C254.399 109.335 253.408 109.981 252.375 110.583C251.342 111.186 250.308 111.703 249.275 112.133L247.208 128.667H218.792ZM233.258 95.0833C238.253 95.0833 242.515 93.3181 246.046 89.7875C249.576 86.2569 251.342 81.9944 251.342 77C251.342 72.0055 249.576 67.743 246.046 64.2125C242.515 60.6819 238.253 58.9167 233.258 58.9167C228.178 58.9167 223.894 60.6819 220.406 64.2125C216.919 67.743 215.175 72.0055 215.175 77C215.175 81.9944 216.919 86.2569 220.406 89.7875C223.894 93.3181 228.178 95.0833 233.258 95.0833Z"
        fill="#5856D6" />
    <path
        d="M324.636 124L297.182 30.9091H325.364L338.091 88.1818H338.818L353.909 30.9091H376.091L391.182 88.3636H391.909L404.636 30.9091H432.818L405.364 124H381.182L365.364 72H364.636L348.818 124H324.636ZM489.682 60C489.439 56.9697 488.303 54.6061 486.273 52.9091C484.273 51.2121 481.227 50.3636 477.136 50.3636C474.53 50.3636 472.394 50.6818 470.727 51.3182C469.091 51.9242 467.879 52.7576 467.091 53.8182C466.303 54.8788 465.894 56.0909 465.864 57.4545C465.803 58.5758 466 59.5909 466.455 60.5C466.939 61.3788 467.697 62.1818 468.727 62.9091C469.758 63.6061 471.076 64.2424 472.682 64.8182C474.288 65.3939 476.197 65.9091 478.409 66.3636L486.045 68C491.197 69.0909 495.606 70.5303 499.273 72.3182C502.939 74.1061 505.939 76.2121 508.273 78.6364C510.606 81.0303 512.318 83.7273 513.409 86.7273C514.53 89.7273 515.106 93 515.136 96.5455C515.106 102.667 513.576 107.848 510.545 112.091C507.515 116.333 503.182 119.561 497.545 121.773C491.939 123.985 485.197 125.091 477.318 125.091C469.227 125.091 462.167 123.894 456.136 121.5C450.136 119.106 445.47 115.424 442.136 110.455C438.833 105.455 437.167 99.0606 437.136 91.2727H461.136C461.288 94.1212 462 96.5152 463.273 98.4545C464.545 100.394 466.333 101.864 468.636 102.864C470.97 103.864 473.742 104.364 476.955 104.364C479.652 104.364 481.909 104.03 483.727 103.364C485.545 102.697 486.924 101.773 487.864 100.591C488.803 99.4091 489.288 98.0606 489.318 96.5455C489.288 95.1212 488.818 93.8788 487.909 92.8182C487.03 91.7273 485.576 90.7576 483.545 89.9091C481.515 89.0303 478.773 88.2121 475.318 87.4545L466.045 85.4545C457.803 83.6667 451.303 80.6818 446.545 76.5C441.818 72.2879 439.47 66.5455 439.5 59.2727C439.47 53.3636 441.045 48.197 444.227 43.7727C447.439 39.3182 451.879 35.8485 457.545 33.3636C463.242 30.8788 469.773 29.6364 477.136 29.6364C484.652 29.6364 491.152 30.8939 496.636 33.4091C502.121 35.9242 506.348 39.4697 509.318 44.0455C512.318 48.5909 513.833 53.9091 513.864 60H489.682ZM524.75 124V30.9091H591.841V51.2727H550.023V67.2727H588.386V87.6364H550.023V103.636H591.659V124H524.75ZM601.83 51.2727V30.9091H682.739V51.2727H654.739V124H629.83V51.2727H601.83Z"
        fill="black" />
    <path
        d="M6 124V30.9091H46.3636C53.4545 30.9091 59.4091 31.8636 64.2273 33.7727C69.0758 35.6818 72.7273 38.3788 75.1818 41.8636C77.6667 45.3485 78.9091 49.4545 78.9091 54.1818C78.9091 57.6061 78.1515 60.7273 76.6364 63.5455C75.1515 66.3636 73.0606 68.7273 70.3636 70.6364C67.6667 72.5151 64.5152 73.8182 60.9091 74.5455V75.4545C64.9091 75.6061 68.5455 76.6212 71.8182 78.5C75.0909 80.3485 77.697 82.9091 79.6364 86.1818C81.5758 89.4242 82.5455 93.2424 82.5455 97.6364C82.5455 102.727 81.2121 107.258 78.5455 111.227C75.9091 115.197 72.1515 118.318 67.2727 120.591C62.3939 122.864 56.5758 124 49.8182 124H6ZM31.2727 103.818H43.0909C47.3333 103.818 50.5152 103.03 52.6364 101.455C54.7576 99.8485 55.8182 97.4848 55.8182 94.3636C55.8182 92.1818 55.3182 90.3333 54.3182 88.8182C53.3182 87.303 51.8939 86.1515 50.0455 85.3636C48.2273 84.5758 46.0303 84.1818 43.4545 84.1818H31.2727V103.818ZM31.2727 68.5455H41.6364C43.8485 68.5455 45.803 68.197 47.5 67.5C49.197 66.803 50.5152 65.803 51.4545 64.5C52.4242 63.1667 52.9091 61.5455 52.9091 59.6364C52.9091 56.7576 51.8788 54.5606 49.8182 53.0455C47.7576 51.5 45.1515 50.7273 42 50.7273H31.2727V68.5455ZM91.5 124V30.9091H131.682C138.591 30.9091 144.636 32.1667 149.818 34.6818C155 37.197 159.03 40.8182 161.909 45.5455C164.788 50.2727 166.227 55.9394 166.227 62.5455C166.227 69.2121 164.742 74.8333 161.773 79.4091C158.833 83.9848 154.697 87.4394 149.364 89.7727C144.061 92.1061 137.864 93.2727 130.773 93.2727H106.773V73.6364H125.682C128.652 73.6364 131.182 73.2727 133.273 72.5455C135.394 71.7879 137.015 70.5909 138.136 68.9545C139.288 67.3182 139.864 65.1818 139.864 62.5455C139.864 59.8788 139.288 57.7121 138.136 56.0455C137.015 54.3485 135.394 53.1061 133.273 52.3182C131.182 51.5 128.652 51.0909 125.682 51.0909H116.773V124H91.5ZM146.045 81.2727L169.318 124H141.864L119.136 81.2727H146.045Z"
        fill="black" />
</svg>
    